<?xml version="1.0" encoding="utf-8"?>
<!-- Generator: Adobe Illustrator 23.0.3, SVG Export Plug-In . SVG Version: 6.00 Build 0)  -->
<svg version="1.1" id="Layer_1" xmlns="http://www.w3.org/2000/svg" xmlns:xlink="http://www.w3.org/1999/xlink" x="0px" y="0px"
	 viewBox="0 0 502.79 62.01" style="enable-background:new 0 0 502.79 62.01;" xml:space="preserve">
<style type="text/css">
	.st0{fill:#FFFFFF;}
</style>
<g>
	<path class="st0" d="M117.21,22.9H74.75l-1.52,1.21v37.75h11.68V47.61l1.06-1.06h31.23c7.88,0,11.52-2.12,11.52-7.58v-8.64
		C128.73,25.02,125.09,22.9,117.21,22.9 M117.21,36.84c0,2.58-1.67,3.03-5.46,3.03H86.12l-1.21-1.06v-8.04l1.06-1.06h25.78
		c3.64,0,5.46,0.45,5.46,3.03L117.21,36.84L117.21,36.84z"/>
	<polyline class="st0" points="150.26,30.02 160.42,44.88 159.81,46.25 137.37,46.25 131.61,53.37 164.97,53.37 167.39,54.74 
		172.55,61.86 186.04,61.86 156.48,22.44 	"/>
	<polyline class="st0" points="284.15,54.28 284.15,43.67 285.36,42.61 307.95,42.61 307.95,35.94 272.17,35.94 272.17,61.86 
		324.93,61.86 324.93,55.19 285.51,55.19 	"/>
	<rect x="272.17" y="22.9" class="st0" width="53.22" height="7.28"/>
	<path class="st0" d="M212.88,29.87h42.91c-0.61-5.46-4.09-6.97-12.58-6.97h-30.78c-9.7,0-12.74,1.82-12.74,9.25v20.62
		c0,7.28,3.03,9.25,12.74,9.25h30.78c8.64,0,11.98-1.67,12.28-7.28h-42.61l-1.21-1.21V30.78"/>
	<path class="st0" d="M44.43,38.06H13.34L12.43,37v-6.67l0.91-0.76h42l0.61-1.36c-1.36-3.64-5.16-5.46-11.98-5.46H14.71
		c-9.7,0-12.74,1.82-12.74,9.25v4.4c0,7.28,3.03,9.25,12.74,9.25h31.08l0.91,0.91v6.97l-0.76,1.06H10.31l0,0H1.06
		c0,0-1.06,0.61-1.06,0.76c0.76,5.16,4.25,6.52,12.58,6.52h31.84c9.7,0,12.89-1.82,12.89-9.25v-5.31
		C57.31,40.03,54.13,38.06,44.43,38.06"/>
	<path class="st0" d="M358.9,22.74h-17.59l-0.91,1.82l19.41,14.25c3.64-2.12,7.73-4.25,11.98-6.37"/>
	<path class="st0" d="M374.67,49.43l17.13,12.43h17.59l0.76-1.67l-25.47-18.65C381.34,44.12,377.85,46.7,374.67,49.43"/>
	<path class="st0" d="M356.32,61.86H340.4l-1.36-2.12C349.8,49.28,398.02,4.7,502.79,0C502.79,0,415,3.03,356.32,61.86"/>
</g>
</svg>
