<svg id="Layer_1" data-name="Layer 1" xmlns="http://www.w3.org/2000/svg" viewBox="0 0 38 38"><defs><style>.cls-1{fill:#fff;}</style></defs><title>in_icon</title><path id="instagram" class="cls-1" d="M19,0c-5.16,0-5.81,0-7.83.11A14.3,14.3,0,0,0,6.55,1,9.23,9.23,0,0,0,3.19,3.19,9.23,9.23,0,0,0,1,6.55a14,14,0,0,0-.89,4.62C0,13.19,0,13.84,0,19s0,5.81.11,7.83A14.3,14.3,0,0,0,1,31.45a9.23,9.23,0,0,0,2.19,3.36A9.23,9.23,0,0,0,6.55,37a14.3,14.3,0,0,0,4.62.89c2,.09,2.67.11,7.83.11s5.81,0,7.83-.11A14.3,14.3,0,0,0,31.45,37,9.65,9.65,0,0,0,37,31.44a14.19,14.19,0,0,0,.89-4.61c.09-2,.11-2.67.11-7.83s0-5.81-.11-7.83A14.3,14.3,0,0,0,37,6.55a9.23,9.23,0,0,0-2.19-3.36A9.23,9.23,0,0,0,31.45,1,14,14,0,0,0,26.83.11C24.81,0,24.16,0,19,0Zm0,3.42c5.07,0,5.68,0,7.68.11a10.66,10.66,0,0,1,3.53.66,6.23,6.23,0,0,1,3.6,3.6,10.66,10.66,0,0,1,.66,3.53c.09,2,.11,2.61.11,7.68s0,5.68-.12,7.68a10.67,10.67,0,0,1-.67,3.53,6,6,0,0,1-1.42,2.18,6,6,0,0,1-2.19,1.43,10.42,10.42,0,0,1-3.54.65c-2,.09-2.61.11-7.69.11s-5.68,0-7.69-.11a10.94,10.94,0,0,1-3.54-.67,5.9,5.9,0,0,1-2.19-1.43,5.76,5.76,0,0,1-1.42-2.18,10.94,10.94,0,0,1-.67-3.54c-.07-2-.09-2.61-.09-7.67s0-5.68.09-7.7a10.74,10.74,0,0,1,.68-3.54A5.47,5.47,0,0,1,5.54,5.56,5.71,5.71,0,0,1,7.73,4.13a10.5,10.5,0,0,1,3.51-.66c2-.07,2.61-.1,7.7-.1Zm0,5.82A9.76,9.76,0,1,0,28.76,19,9.76,9.76,0,0,0,19,9.24Zm0,16.09A6.33,6.33,0,1,1,25.33,19,6.32,6.32,0,0,1,19,25.33ZM31.42,8.87a2.28,2.28,0,1,1-2.28-2.28h0A2.28,2.28,0,0,1,31.42,8.87Z"/></svg>