<svg id="Layer_1" data-name="Layer 1" xmlns="http://www.w3.org/2000/svg" viewBox="0 0 38 38"><defs><style>.cls-1{fill:#fff;}</style></defs><title>tw_icon</title><path class="cls-1" d="M38,7.22a15.63,15.63,0,0,1-4.48,1.22A7.79,7.79,0,0,0,37,4.13,15.69,15.69,0,0,1,32,6a7.8,7.8,0,0,0-13.29,7.11A22.12,22.12,0,0,1,2.65,5a7.79,7.79,0,0,0,2.41,10.4,7.79,7.79,0,0,1-3.53-1,7.79,7.79,0,0,0,6.25,7.74,7.7,7.7,0,0,1-3.52.13,7.8,7.8,0,0,0,7.28,5.42A15.64,15.64,0,0,1,0,30.94a22.09,22.09,0,0,0,12,3.5c14.48,0,22.65-12.22,22.16-23.19A15.85,15.85,0,0,0,38,7.22Z"/></svg>